<svg width="24" height="24" viewBox="0 0 24 24" fill="none" xmlns="http://www.w3.org/2000/svg">
<g clip-path="url(#clip0_244_26)">
<mask id="mask0_244_26" style="mask-type:luminance" maskUnits="userSpaceOnUse" x="0" y="0" width="24" height="24">
<mask id="mask1_244_26" style="mask-type:alpha" maskUnits="userSpaceOnUse" x="0" y="0" width="24" height="24">
<rect width="24" height="24" fill="white"/>
</mask>
<g mask="url(#mask1_244_26)">
<path d="M15.6997 13.0125L14.4421 11.7078C14.5106 10.9843 14.302 10.3901 13.8162 9.92506C13.3304 9.46005 12.785 9.26311 12.18 9.33423L10.9224 8.0295C11.0858 7.97479 11.2595 7.93377 11.4434 7.90642C11.6273 7.87906 11.8128 7.86538 12 7.86538C13.081 7.86538 13.9985 8.25653 14.7525 9.03884C15.5065 9.82114 15.8836 10.773 15.8836 11.8945C15.8836 12.0887 15.8704 12.2846 15.844 12.4822C15.8176 12.6799 15.7695 12.8566 15.6997 13.0125ZM19.0988 16.5186L18.118 15.5216C18.735 15.0237 19.2962 14.477 19.8018 13.8814C20.3073 13.2858 20.7315 12.6235 21.0742 11.8945C20.2345 10.0988 18.9963 8.68971 17.3597 7.66738C15.7231 6.64505 13.9365 6.13389 12 6.13389C11.5544 6.13389 11.1174 6.16056 10.689 6.2139C10.2606 6.26723 9.84071 6.35613 9.42942 6.48059L8.33399 5.3441C8.93247 5.11159 9.54051 4.95397 10.1581 4.87122C10.7757 4.78847 11.3897 4.7471 12 4.7471C14.2727 4.7471 16.3815 5.38306 18.3266 6.65498C20.2717 7.92692 21.6799 9.67343 22.5513 11.8945C22.1874 12.8122 21.7125 13.6485 21.1266 14.4035C20.5406 15.1584 19.8647 15.8634 19.0988 16.5186ZM19.3638 21.516L16.1802 18.1926C15.6015 18.4483 14.9572 18.6538 14.2473 18.809C13.5374 18.9643 12.7883 19.0419 12 19.0419C9.72077 19.0419 7.61191 18.4059 5.67343 17.134C3.73494 15.8621 2.32672 14.1156 1.44876 11.8945C1.84556 10.8811 2.37879 9.95309 3.04847 9.1106C3.71814 8.26813 4.47416 7.5296 5.31652 6.89501L2.72617 4.22806L3.68122 3.23721L20.3188 20.5251L19.3638 21.516ZM6.27158 7.9125C5.62564 8.39666 4.99452 8.97588 4.37823 9.65015C3.76194 10.3244 3.27781 11.0725 2.92582 11.8945C3.76555 13.6902 5.00372 15.0993 6.64033 16.1216C8.27694 17.1439 10.0635 17.6551 12 17.6551C12.5708 17.6551 13.1397 17.6052 13.7065 17.5053C14.2734 17.4055 14.7611 17.2852 15.1698 17.1443L13.6373 15.5749C13.4106 15.6843 13.1476 15.7697 12.8483 15.8313C12.5491 15.8928 12.2663 15.9236 12 15.9236C10.9191 15.9236 10.0016 15.5325 9.24753 14.7502C8.49348 13.9679 8.11646 13.016 8.11646 11.8945C8.11646 11.6251 8.1547 11.3368 8.23116 11.0298C8.30763 10.7227 8.38145 10.4448 8.45262 10.1958L6.27158 7.9125Z" fill="white"/>
</g>
</mask>
<g mask="url(#mask0_244_26)">
<rect width="24" height="24" fill="#6D7B88"/>
</g>
</g>
<defs>
<clipPath id="clip0_244_26">
<rect width="24" height="24" fill="white"/>
</clipPath>
</defs>
</svg>
