<svg width="21" height="20" viewBox="0 0 21 20" fill="none" xmlns="http://www.w3.org/2000/svg">
<path d="M19.3 10.2083C19.3 9.55834 19.2417 8.93334 19.1333 8.33334H10.5V11.8792H15.4333C15.2208 13.025 14.575 13.9958 13.6042 14.6458V16.9458H16.5667C18.3 15.35 19.3 13 19.3 10.2083Z" fill="#4285F4"/>
<path d="M10.5 19.1667C12.975 19.1667 15.05 18.3458 16.5667 16.9458L13.6042 14.6458C12.7833 15.1958 11.7333 15.5208 10.5 15.5208C8.1125 15.5208 6.09167 13.9083 5.37083 11.7417H2.30833V14.1167C3.81667 17.1125 6.91667 19.1667 10.5 19.1667Z" fill="#34A853"/>
<path d="M5.37083 11.7417C5.1875 11.1917 5.08333 10.6042 5.08333 10C5.08333 9.39583 5.1875 8.80833 5.37083 8.25833V5.88333H2.30833C1.66666 7.16071 1.33276 8.57051 1.33333 10C1.33333 11.4792 1.6875 12.8792 2.30833 14.1167L5.37083 11.7417Z" fill="#FBBC05"/>
<path d="M10.5 4.47918C11.8458 4.47918 13.0542 4.94168 14.0042 5.85001L16.6333 3.22084C15.0458 1.74168 12.9708 0.833344 10.5 0.833344C6.91667 0.833344 3.81667 2.88751 2.30833 5.88334L5.37083 8.25834C6.09167 6.09168 8.1125 4.47918 10.5 4.47918Z" fill="#EA4335"/>
</svg>
